<svg xmlns="http://www.w3.org/2000/svg" width="2000" height="669" viewBox="0 0 2000 669">
<defs>
<filter id="sh" x="-20%" y="-20%" width="140%" height="160%"><feGaussianBlur in="SourceAlpha" stdDeviation="14"/><feOffset dy="16"/><feComponentTransfer><feFuncA type="linear" slope="0.22"/></feComponentTransfer><feMerge><feMergeNode/><feMergeNode in="SourceGraphic"/></feMerge></filter>
</defs>
<rect width="2000" height="669" fill="#F9F7F1"/>
<path d="M-60.0,679 L-60.0,554.9 L-54.7,554.2 L-48.9,553.5 L-42.6,552.7 L-35.7,551.9 L-28.4,551.0 L-20.6,550.0 L-12.4,549.0 L-3.7,548.0 L5.4,546.9 L14.9,545.7 L24.8,544.5 L35.0,543.3 L45.6,542.1 L56.5,540.7 L67.7,539.4 L79.3,538.0 L91.1,536.5 L103.1,535.0 L115.4,533.4 L128.0,531.8 L140.7,530.1 L153.6,528.3 L166.7,526.6 L180.0,524.7 L193.6,522.8 L207.7,520.9 L222.3,519.0 L237.4,516.9 L252.9,514.9 L268.8,512.8 L285.0,510.7 L301.5,508.5 L318.3,506.4 L335.3,504.3 L352.6,502.2 L370.0,500.1 L387.6,498.1 L405.2,496.1 L423.0,494.1 L440.7,492.1 L458.5,490.2 L476.2,488.2 L493.9,486.1 L511.5,484.0 L528.9,481.8 L546.2,479.4 L563.2,476.8 L580.0,474.0 L596.7,471.0 L613.3,467.7 L630.0,464.2 L646.7,460.4 L663.3,456.4 L680.0,452.2 L696.7,447.7 L713.3,443.1 L730.0,438.3 L746.7,433.4 L763.3,428.4 L780.0,423.4 L796.7,418.3 L813.3,413.3 L830.0,408.3 L846.7,403.3 L863.3,398.5 L880.0,393.9 L896.7,389.4 L913.3,385.1 L930.0,381.0 L946.7,377.1 L963.3,373.5 L980.0,370.0 L996.7,366.7 L1013.3,363.4 L1030.0,360.2 L1046.7,356.9 L1063.3,353.7 L1080.0,350.4 L1096.7,347.1 L1113.3,343.8 L1130.0,340.5 L1146.7,337.1 L1163.3,333.7 L1180.0,330.3 L1196.7,326.9 L1213.3,323.5 L1230.0,320.2 L1246.7,316.8 L1263.3,313.6 L1280.0,310.5 L1296.7,307.5 L1313.3,304.7 L1330.0,302.1 L1346.7,299.7 L1363.3,297.6 L1380.0,295.7 L1396.8,294.2 L1413.7,293.1 L1430.8,292.2 L1448.1,291.7 L1465.4,291.5 L1482.8,291.6 L1500.3,291.9 L1517.8,292.5 L1535.3,293.2 L1552.7,294.1 L1570.2,295.0 L1587.5,296.0 L1604.7,297.0 L1621.8,297.9 L1638.8,298.8 L1655.6,299.6 L1672.1,300.3 L1688.4,300.8 L1704.5,301.2 L1720.3,301.3 L1735.7,301.3 L1750.9,301.2 L1765.6,300.8 L1780.0,300.3 L1794.2,299.6 L1808.4,298.9 L1822.7,298.1 L1836.9,297.3 L1851.0,296.5 L1865.0,295.7 L1878.9,294.9 L1892.6,294.2 L1906.1,293.5 L1919.4,292.8 L1932.3,292.2 L1945.0,291.6 L1957.3,291.1 L1969.3,290.7 L1980.8,290.3 L1991.9,289.9 L2002.4,289.7 L2012.5,289.4 L2022.0,289.2 L2030.9,289.0 L2039.2,288.8 L2046.9,288.7 L2053.8,288.6 L2060.0,286.6 L2060.0,679 Z" fill="rgb(236,232,224)" stroke="rgba(0,0,0,0.07)" stroke-width="1"/>
<path d="M-60.0,679 L-60.0,562.4 L-54.7,561.8 L-48.9,561.2 L-42.6,560.5 L-35.7,559.7 L-28.4,558.9 L-20.6,557.9 L-12.4,556.9 L-3.7,555.8 L5.4,554.7 L14.9,553.4 L24.8,552.1 L35.0,550.7 L45.6,549.2 L56.5,547.6 L67.7,546.0 L79.3,544.2 L91.1,542.4 L103.1,540.4 L115.4,538.5 L128.0,536.4 L140.7,534.3 L153.6,532.1 L166.7,530.0 L180.0,527.8 L193.6,525.6 L207.7,523.4 L222.3,521.2 L237.4,519.0 L252.9,516.9 L268.8,514.8 L285.0,512.7 L301.5,510.8 L318.3,508.8 L335.3,507.0 L352.6,505.1 L370.0,503.4 L387.6,501.6 L405.2,499.8 L423.0,498.1 L440.7,496.2 L458.5,494.3 L476.2,492.3 L493.9,490.0 L511.5,487.7 L528.9,485.1 L546.2,482.2 L563.2,479.2 L580.0,475.9 L596.7,472.4 L613.3,468.6 L630.0,464.5 L646.7,460.2 L663.3,455.8 L680.0,451.2 L696.7,446.4 L713.3,441.6 L730.0,436.8 L746.7,431.9 L763.3,427.1 L780.0,422.3 L796.7,417.6 L813.3,413.1 L830.0,408.6 L846.7,404.4 L863.3,400.3 L880.0,396.4 L896.7,392.6 L913.3,389.0 L930.0,385.6 L946.7,382.4 L963.3,379.3 L980.0,376.4 L996.7,373.5 L1013.3,370.5 L1030.0,367.5 L1046.7,364.3 L1063.3,361.1 L1080.0,357.8 L1096.7,354.4 L1113.3,350.9 L1130.0,347.3 L1146.7,343.7 L1163.3,340.1 L1180.0,336.5 L1196.7,332.9 L1213.3,329.4 L1230.0,326.0 L1246.7,322.7 L1263.3,319.5 L1280.0,316.6 L1296.7,313.9 L1313.3,311.4 L1330.0,309.2 L1346.7,307.3 L1363.3,305.7 L1380.0,304.4 L1396.8,303.4 L1413.7,302.8 L1430.8,302.5 L1448.1,302.4 L1465.4,302.6 L1482.8,302.9 L1500.3,303.4 L1517.8,304.0 L1535.3,304.6 L1552.7,305.2 L1570.2,305.8 L1587.5,306.3 L1604.7,306.8 L1621.8,307.1 L1638.8,307.3 L1655.6,307.4 L1672.1,307.3 L1688.4,307.1 L1704.5,306.8 L1720.3,306.4 L1735.7,305.8 L1750.9,305.2 L1765.6,304.4 L1780.0,303.6 L1794.2,302.7 L1808.4,301.9 L1822.7,301.0 L1836.9,300.2 L1851.0,299.5 L1865.0,298.8 L1878.9,298.2 L1892.6,297.6 L1906.1,297.1 L1919.4,296.7 L1932.3,296.3 L1945.0,296.0 L1957.3,295.7 L1969.3,295.5 L1980.8,295.3 L1991.9,295.1 L2002.4,294.9 L2012.5,294.8 L2022.0,294.6 L2030.9,294.5 L2039.2,294.3 L2046.9,294.2 L2053.8,294.0 L2060.0,292.7 L2060.0,679 Z" fill="rgb(231,228,220)" stroke="rgba(0,0,0,0.07)" stroke-width="1"/>
<path d="M-60.0,679 L-60.0,569.5 L-54.7,568.9 L-48.9,568.1 L-42.6,567.3 L-35.7,566.3 L-28.4,565.3 L-20.6,564.1 L-12.4,562.8 L-3.7,561.5 L5.4,560.0 L14.9,558.4 L24.8,556.7 L35.0,554.9 L45.6,553.1 L56.5,551.1 L67.7,549.0 L79.3,546.9 L91.1,544.7 L103.1,542.5 L115.4,540.2 L128.0,537.9 L140.7,535.5 L153.6,533.2 L166.7,531.0 L180.0,528.7 L193.6,526.6 L207.7,524.5 L222.3,522.4 L237.4,520.4 L252.9,518.6 L268.8,516.7 L285.0,515.0 L301.5,513.3 L318.3,511.7 L335.3,510.1 L352.6,508.4 L370.0,506.8 L387.6,505.1 L405.2,503.3 L423.0,501.3 L440.7,499.2 L458.5,496.9 L476.2,494.4 L493.9,491.7 L511.5,488.7 L528.9,485.6 L546.2,482.2 L563.2,478.7 L580.0,474.9 L596.7,471.0 L613.3,466.9 L630.0,462.7 L646.7,458.3 L663.3,453.9 L680.0,449.5 L696.7,445.1 L713.3,440.7 L730.0,436.4 L746.7,432.1 L763.3,428.0 L780.0,424.0 L796.7,420.1 L813.3,416.4 L830.0,412.7 L846.7,409.2 L863.3,405.9 L880.0,402.6 L896.7,399.4 L913.3,396.3 L930.0,393.3 L946.7,390.3 L963.3,387.4 L980.0,384.5 L996.7,381.6 L1013.3,378.5 L1030.0,375.2 L1046.7,371.8 L1063.3,368.3 L1080.0,364.7 L1096.7,361.1 L1113.3,357.3 L1130.0,353.6 L1146.7,349.9 L1163.3,346.2 L1180.0,342.6 L1196.7,339.2 L1213.3,335.8 L1230.0,332.7 L1246.7,329.8 L1263.3,327.1 L1280.0,324.6 L1296.7,322.4 L1313.3,320.5 L1330.0,318.8 L1346.7,317.4 L1363.3,316.2 L1380.0,315.3 L1396.8,314.6 L1413.7,314.1 L1430.8,313.9 L1448.1,313.7 L1465.4,313.7 L1482.8,313.7 L1500.3,313.7 L1517.8,313.7 L1535.3,313.7 L1552.7,313.5 L1570.2,313.3 L1587.5,313.0 L1604.7,312.7 L1621.8,312.2 L1638.8,311.7 L1655.6,311.1 L1672.1,310.5 L1688.4,309.8 L1704.5,309.2 L1720.3,308.5 L1735.7,307.8 L1750.9,307.1 L1765.6,306.4 L1780.0,305.7 L1794.2,305.0 L1808.4,304.3 L1822.7,303.8 L1836.9,303.3 L1851.0,302.9 L1865.0,302.5 L1878.9,302.2 L1892.6,301.9 L1906.1,301.7 L1919.4,301.5 L1932.3,301.3 L1945.0,301.1 L1957.3,300.9 L1969.3,300.7 L1980.8,300.5 L1991.9,300.2 L2002.4,300.0 L2012.5,299.7 L2022.0,299.4 L2030.9,299.1 L2039.2,298.8 L2046.9,298.5 L2053.8,298.2 L2060.0,298.9 L2060.0,679 Z" fill="rgb(225,221,214)" stroke="rgba(0,0,0,0.07)" stroke-width="1"/>
<path d="M-60.0,679 L-60.0,573.3 L-54.7,572.5 L-48.9,571.5 L-42.6,570.4 L-35.7,569.1 L-28.4,567.8 L-20.6,566.3 L-12.4,564.7 L-3.7,563.1 L5.4,561.3 L14.9,559.4 L24.8,557.4 L35.0,555.4 L45.6,553.2 L56.5,551.1 L67.7,548.9 L79.3,546.6 L91.1,544.4 L103.1,542.1 L115.4,539.9 L128.0,537.7 L140.7,535.5 L153.6,533.4 L166.7,531.4 L180.0,529.4 L193.6,527.6 L207.7,525.8 L222.3,524.1 L237.4,522.4 L252.9,520.8 L268.8,519.3 L285.0,517.7 L301.5,516.2 L318.3,514.6 L335.3,512.9 L352.6,511.1 L370.0,509.2 L387.6,507.1 L405.2,504.8 L423.0,502.4 L440.7,499.7 L458.5,496.9 L476.2,493.9 L493.9,490.6 L511.5,487.3 L528.9,483.8 L546.2,480.3 L563.2,476.6 L580.0,472.9 L596.7,469.2 L613.3,465.4 L630.0,461.6 L646.7,457.8 L663.3,454.1 L680.0,450.4 L696.7,446.8 L713.3,443.3 L730.0,439.8 L746.7,436.5 L763.3,433.2 L780.0,430.0 L796.7,426.8 L813.3,423.7 L830.0,420.6 L846.7,417.6 L863.3,414.5 L880.0,411.4 L896.7,408.3 L913.3,405.2 L930.0,402.0 L946.7,398.8 L963.3,395.6 L980.0,392.4 L996.7,389.1 L1013.3,385.7 L1030.0,382.1 L1046.7,378.4 L1063.3,374.7 L1080.0,371.0 L1096.7,367.3 L1113.3,363.6 L1130.0,360.0 L1146.7,356.5 L1163.3,353.1 L1180.0,349.9 L1196.7,346.9 L1213.3,344.1 L1230.0,341.4 L1246.7,339.0 L1263.3,336.8 L1280.0,334.8 L1296.7,332.9 L1313.3,331.3 L1330.0,329.8 L1346.7,328.4 L1363.3,327.2 L1380.0,326.1 L1396.8,325.1 L1413.7,324.2 L1430.8,323.4 L1448.1,322.6 L1465.4,321.8 L1482.8,320.9 L1500.3,320.1 L1517.8,319.2 L1535.3,318.3 L1552.7,317.4 L1570.2,316.4 L1587.5,315.5 L1604.7,314.5 L1621.8,313.7 L1638.8,312.9 L1655.6,312.1 L1672.1,311.5 L1688.4,310.9 L1704.5,310.4 L1720.3,310.0 L1735.7,309.6 L1750.9,309.3 L1765.6,309.0 L1780.0,308.7 L1794.2,308.3 L1808.4,308.1 L1822.7,307.9 L1836.9,307.7 L1851.0,307.5 L1865.0,307.3 L1878.9,307.2 L1892.6,307.0 L1906.1,306.8 L1919.4,306.5 L1932.3,306.2 L1945.0,305.9 L1957.3,305.5 L1969.3,305.1 L1980.8,304.6 L1991.9,304.1 L2002.4,303.6 L2012.5,303.1 L2022.0,302.6 L2030.9,302.1 L2039.2,301.6 L2046.9,301.1 L2053.8,300.7 L2060.0,305.0 L2060.0,679 Z" fill="rgb(218,214,206)" stroke="rgba(0,0,0,0.07)" stroke-width="1"/>
<path d="M-60.0,679 L-60.0,572.7 L-54.7,571.7 L-48.9,570.5 L-42.6,569.2 L-35.7,567.8 L-28.4,566.3 L-20.6,564.7 L-12.4,563.0 L-3.7,561.3 L5.4,559.4 L14.9,557.5 L24.8,555.6 L35.0,553.6 L45.6,551.6 L56.5,549.6 L67.7,547.5 L79.3,545.5 L91.1,543.6 L103.1,541.6 L115.4,539.7 L128.0,537.9 L140.7,536.1 L153.6,534.4 L166.7,532.7 L180.0,531.0 L193.6,529.5 L207.7,527.9 L222.3,526.4 L237.4,524.8 L252.9,523.3 L268.8,521.7 L285.0,520.0 L301.5,518.1 L318.3,516.2 L335.3,514.1 L352.6,511.8 L370.0,509.4 L387.6,506.8 L405.2,504.1 L423.0,501.2 L440.7,498.2 L458.5,495.1 L476.2,491.9 L493.9,488.7 L511.5,485.6 L528.9,482.4 L546.2,479.3 L563.2,476.2 L580.0,473.2 L596.7,470.3 L613.3,467.3 L630.0,464.4 L646.7,461.6 L663.3,458.8 L680.0,456.0 L696.7,453.2 L713.3,450.5 L730.0,447.7 L746.7,445.0 L763.3,442.1 L780.0,439.3 L796.7,436.3 L813.3,433.3 L830.0,430.2 L846.7,427.0 L863.3,423.7 L880.0,420.3 L896.7,416.8 L913.3,413.2 L930.0,409.7 L946.7,406.1 L963.3,402.5 L980.0,399.0 L996.7,395.4 L1013.3,391.8 L1030.0,388.2 L1046.7,384.6 L1063.3,381.0 L1080.0,377.5 L1096.7,374.1 L1113.3,370.8 L1130.0,367.6 L1146.7,364.6 L1163.3,361.7 L1180.0,359.0 L1196.7,356.4 L1213.3,354.0 L1230.0,351.6 L1246.7,349.4 L1263.3,347.2 L1280.0,345.2 L1296.7,343.2 L1313.3,341.2 L1330.0,339.3 L1346.7,337.4 L1363.3,335.5 L1380.0,333.7 L1396.8,331.9 L1413.7,330.2 L1430.8,328.4 L1448.1,326.7 L1465.4,325.1 L1482.8,323.4 L1500.3,321.9 L1517.8,320.4 L1535.3,319.0 L1552.7,317.7 L1570.2,316.6 L1587.5,315.6 L1604.7,314.7 L1621.8,314.1 L1638.8,313.6 L1655.6,313.3 L1672.1,313.1 L1688.4,313.0 L1704.5,313.0 L1720.3,313.1 L1735.7,313.2 L1750.9,313.3 L1765.6,313.4 L1780.0,313.3 L1794.2,313.3 L1808.4,313.2 L1822.7,313.1 L1836.9,312.9 L1851.0,312.7 L1865.0,312.4 L1878.9,312.1 L1892.6,311.7 L1906.1,311.2 L1919.4,310.7 L1932.3,310.1 L1945.0,309.5 L1957.3,308.8 L1969.3,308.2 L1980.8,307.5 L1991.9,306.8 L2002.4,306.2 L2012.5,305.5 L2022.0,304.9 L2030.9,304.4 L2039.2,303.9 L2046.9,303.4 L2053.8,303.0 L2060.0,311.1 L2060.0,679 Z" fill="rgb(209,206,198)" stroke="rgba(0,0,0,0.07)" stroke-width="1"/>
<path d="M-60.0,679 L-60.0,569.3 L-54.7,568.2 L-48.9,567.1 L-42.6,565.9 L-35.7,564.6 L-28.4,563.2 L-20.6,561.7 L-12.4,560.2 L-3.7,558.6 L5.4,557.0 L14.9,555.4 L24.8,553.8 L35.0,552.1 L45.6,550.5 L56.5,548.9 L67.7,547.2 L79.3,545.6 L91.1,544.1 L103.1,542.5 L115.4,540.9 L128.0,539.4 L140.7,537.8 L153.6,536.3 L166.7,534.8 L180.0,533.2 L193.6,531.6 L207.7,529.9 L222.3,528.2 L237.4,526.5 L252.9,524.6 L268.8,522.6 L285.0,520.5 L301.5,518.2 L318.3,515.8 L335.3,513.3 L352.6,510.7 L370.0,508.0 L387.6,505.2 L405.2,502.5 L423.0,499.7 L440.7,497.0 L458.5,494.3 L476.2,491.7 L493.9,489.2 L511.5,486.9 L528.9,484.6 L546.2,482.4 L563.2,480.4 L580.0,478.3 L596.7,476.3 L613.3,474.3 L630.0,472.2 L646.7,470.1 L663.3,467.9 L680.0,465.6 L696.7,463.2 L713.3,460.7 L730.0,458.0 L746.7,455.2 L763.3,452.2 L780.0,449.1 L796.7,445.8 L813.3,442.3 L830.0,438.7 L846.7,435.0 L863.3,431.2 L880.0,427.3 L896.7,423.4 L913.3,419.5 L930.0,415.7 L946.7,411.9 L963.3,408.3 L980.0,404.8 L996.7,401.4 L1013.3,398.1 L1030.0,394.8 L1046.7,391.6 L1063.3,388.4 L1080.0,385.4 L1096.7,382.4 L1113.3,379.5 L1130.0,376.7 L1146.7,374.0 L1163.3,371.3 L1180.0,368.7 L1196.7,366.1 L1213.3,363.5 L1230.0,360.9 L1246.7,358.2 L1263.3,355.6 L1280.0,352.9 L1296.7,350.1 L1313.3,347.4 L1330.0,344.6 L1346.7,341.8 L1363.3,339.0 L1380.0,336.3 L1396.8,333.7 L1413.7,331.3 L1430.8,328.9 L1448.1,326.7 L1465.4,324.6 L1482.8,322.8 L1500.3,321.1 L1517.8,319.7 L1535.3,318.6 L1552.7,317.6 L1570.2,317.0 L1587.5,316.5 L1604.7,316.3 L1621.8,316.3 L1638.8,316.4 L1655.6,316.7 L1672.1,317.1 L1688.4,317.5 L1704.5,317.9 L1720.3,318.3 L1735.7,318.7 L1750.9,318.9 L1765.6,319.0 L1780.0,318.9 L1794.2,318.7 L1808.4,318.5 L1822.7,318.1 L1836.9,317.7 L1851.0,317.2 L1865.0,316.6 L1878.9,316.0 L1892.6,315.3 L1906.1,314.6 L1919.4,313.9 L1932.3,313.2 L1945.0,312.5 L1957.3,311.8 L1969.3,311.1 L1980.8,310.5 L1991.9,310.0 L2002.4,309.5 L2012.5,309.1 L2022.0,308.7 L2030.9,308.4 L2039.2,308.2 L2046.9,308.0 L2053.8,307.9 L2060.0,317.2 L2060.0,679 Z" fill="rgb(200,196,189)" stroke="rgba(0,0,0,0.07)" stroke-width="1"/>
<path d="M-60.0,679 L-60.0,565.9 L-54.7,565.1 L-48.9,564.2 L-42.6,563.2 L-35.7,562.2 L-28.4,561.1 L-20.6,559.9 L-12.4,558.8 L-3.7,557.6 L5.4,556.3 L14.9,555.1 L24.8,553.8 L35.0,552.5 L45.6,551.2 L56.5,549.9 L67.7,548.6 L79.3,547.2 L91.1,545.8 L103.1,544.4 L115.4,542.9 L128.0,541.3 L140.7,539.7 L153.6,538.1 L166.7,536.3 L180.0,534.5 L193.6,532.6 L207.7,530.7 L222.3,528.6 L237.4,526.5 L252.9,524.3 L268.8,522.0 L285.0,519.6 L301.5,517.2 L318.3,514.7 L335.3,512.3 L352.6,509.9 L370.0,507.5 L387.6,505.3 L405.2,503.2 L423.0,501.2 L440.7,499.4 L458.5,497.7 L476.2,496.1 L493.9,494.7 L511.5,493.4 L528.9,492.1 L546.2,490.8 L563.2,489.5 L580.0,488.1 L596.7,486.6 L613.3,485.0 L630.0,483.1 L646.7,481.1 L663.3,478.8 L680.0,476.3 L696.7,473.6 L713.3,470.6 L730.0,467.4 L746.7,464.0 L763.3,460.5 L780.0,456.7 L796.7,452.8 L813.3,448.8 L830.0,444.8 L846.7,440.7 L863.3,436.6 L880.0,432.6 L896.7,428.7 L913.3,424.8 L930.0,421.2 L946.7,417.7 L963.3,414.4 L980.0,411.3 L996.7,408.3 L1013.3,405.4 L1030.0,402.5 L1046.7,399.6 L1063.3,396.8 L1080.0,394.0 L1096.7,391.1 L1113.3,388.3 L1130.0,385.4 L1146.7,382.4 L1163.3,379.3 L1180.0,376.2 L1196.7,373.0 L1213.3,369.6 L1230.0,366.2 L1246.7,362.7 L1263.3,359.2 L1280.0,355.6 L1296.7,352.0 L1313.3,348.4 L1330.0,344.9 L1346.7,341.5 L1363.3,338.2 L1380.0,335.1 L1396.8,332.3 L1413.7,329.7 L1430.8,327.5 L1448.1,325.5 L1465.4,323.8 L1482.8,322.5 L1500.3,321.4 L1517.8,320.7 L1535.3,320.3 L1552.7,320.1 L1570.2,320.2 L1587.5,320.5 L1604.7,320.9 L1621.8,321.5 L1638.8,322.1 L1655.6,322.7 L1672.1,323.2 L1688.4,323.7 L1704.5,324.2 L1720.3,324.5 L1735.7,324.6 L1750.9,324.6 L1765.6,324.4 L1780.0,324.1 L1794.2,323.6 L1808.4,323.0 L1822.7,322.4 L1836.9,321.8 L1851.0,321.1 L1865.0,320.4 L1878.9,319.7 L1892.6,319.1 L1906.1,318.5 L1919.4,317.9 L1932.3,317.5 L1945.0,317.1 L1957.3,316.8 L1969.3,316.5 L1980.8,316.4 L1991.9,316.3 L2002.4,316.3 L2012.5,316.4 L2022.0,316.6 L2030.9,316.7 L2039.2,316.9 L2046.9,317.2 L2053.8,317.4 L2060.0,323.3 L2060.0,679 Z" fill="rgb(190,187,180)" stroke="rgba(0,0,0,0.07)" stroke-width="1"/>
<path d="M-60.0,679 L-60.0,565.0 L-54.7,564.4 L-48.9,563.7 L-42.6,563.0 L-35.7,562.2 L-28.4,561.4 L-20.6,560.5 L-12.4,559.6 L-3.7,558.7 L5.4,557.7 L14.9,556.6 L24.8,555.5 L35.0,554.3 L45.6,553.1 L56.5,551.8 L67.7,550.5 L79.3,549.0 L91.1,547.5 L103.1,545.9 L115.4,544.2 L128.0,542.4 L140.7,540.6 L153.6,538.7 L166.7,536.6 L180.0,534.6 L193.6,532.5 L207.7,530.3 L222.3,528.1 L237.4,525.9 L252.9,523.7 L268.8,521.6 L285.0,519.5 L301.5,517.4 L318.3,515.6 L335.3,513.8 L352.6,512.2 L370.0,510.8 L387.6,509.5 L405.2,508.4 L423.0,507.5 L440.7,506.6 L458.5,505.9 L476.2,505.2 L493.9,504.4 L511.5,503.6 L528.9,502.8 L546.2,501.7 L563.2,500.5 L580.0,499.0 L596.7,497.3 L613.3,495.3 L630.0,493.0 L646.7,490.5 L663.3,487.6 L680.0,484.5 L696.7,481.2 L713.3,477.7 L730.0,474.0 L746.7,470.1 L763.3,466.2 L780.0,462.1 L796.7,458.1 L813.3,454.1 L830.0,450.1 L846.7,446.2 L863.3,442.4 L880.0,438.7 L896.7,435.2 L913.3,431.8 L930.0,428.6 L946.7,425.5 L963.3,422.6 L980.0,419.9 L996.7,417.1 L1013.3,414.3 L1030.0,411.4 L1046.7,408.4 L1063.3,405.3 L1080.0,402.0 L1096.7,398.6 L1113.3,395.1 L1130.0,391.3 L1146.7,387.5 L1163.3,383.4 L1180.0,379.3 L1196.7,375.0 L1213.3,370.7 L1230.0,366.3 L1246.7,362.0 L1263.3,357.6 L1280.0,353.4 L1296.7,349.3 L1313.3,345.3 L1330.0,341.6 L1346.7,338.2 L1363.3,335.1 L1380.0,332.3 L1396.8,329.9 L1413.7,327.9 L1430.8,326.2 L1448.1,324.9 L1465.4,324.0 L1482.8,323.4 L1500.3,323.1 L1517.8,323.1 L1535.3,323.2 L1552.7,323.5 L1570.2,324.0 L1587.5,324.4 L1604.7,324.9 L1621.8,325.4 L1638.8,325.8 L1655.6,326.2 L1672.1,326.4 L1688.4,326.5 L1704.5,326.5 L1720.3,326.4 L1735.7,326.1 L1750.9,325.7 L1765.6,325.3 L1780.0,324.7 L1794.2,324.0 L1808.4,323.4 L1822.7,322.8 L1836.9,322.3 L1851.0,321.8 L1865.0,321.4 L1878.9,321.2 L1892.6,321.0 L1906.1,320.9 L1919.4,321.0 L1932.3,321.1 L1945.0,321.4 L1957.3,321.7 L1969.3,322.1 L1980.8,322.6 L1991.9,323.1 L2002.4,323.6 L2012.5,324.2 L2022.0,324.7 L2030.9,325.3 L2039.2,325.8 L2046.9,326.3 L2053.8,326.7 L2060.0,325.3 L2060.0,679 Z" fill="rgb(180,176,170)" stroke="rgba(0,0,0,0.07)" stroke-width="1"/>
<path d="M-60.0,679 L-60.0,566.5 L-54.7,566.0 L-48.9,565.4 L-42.6,564.8 L-35.7,564.1 L-28.4,563.4 L-20.6,562.5 L-12.4,561.7 L-3.7,560.7 L5.4,559.7 L14.9,558.5 L24.8,557.3 L35.0,556.1 L45.6,554.7 L56.5,553.2 L67.7,551.7 L79.3,550.0 L91.1,548.3 L103.1,546.5 L115.4,544.6 L128.0,542.7 L140.7,540.8 L153.6,538.8 L166.7,536.8 L180.0,534.9 L193.6,532.9 L207.7,531.1 L222.3,529.3 L237.4,527.6 L252.9,526.0 L268.8,524.6 L285.0,523.3 L301.5,522.2 L318.3,521.3 L335.3,520.5 L352.6,519.9 L370.0,519.4 L387.6,519.0 L405.2,518.6 L423.0,518.2 L440.7,517.8 L458.5,517.3 L476.2,516.6 L493.9,515.8 L511.5,514.7 L528.9,513.3 L546.2,511.7 L563.2,509.8 L580.0,507.6 L596.7,505.2 L613.3,502.4 L630.0,499.4 L646.7,496.1 L663.3,492.7 L680.0,489.1 L696.7,485.3 L713.3,481.5 L730.0,477.6 L746.7,473.8 L763.3,469.9 L780.0,466.2 L796.7,462.5 L813.3,458.8 L830.0,455.3 L846.7,451.9 L863.3,448.7 L880.0,445.5 L896.7,442.4 L913.3,439.4 L930.0,436.4 L946.7,433.5 L963.3,430.6 L980.0,427.6 L996.7,424.6 L1013.3,421.3 L1030.0,417.8 L1046.7,414.1 L1063.3,410.2 L1080.0,406.0 L1096.7,401.7 L1113.3,397.1 L1130.0,392.4 L1146.7,387.6 L1163.3,382.7 L1180.0,377.8 L1196.7,372.9 L1213.3,368.1 L1230.0,363.4 L1246.7,358.8 L1263.3,354.5 L1280.0,350.4 L1296.7,346.6 L1313.3,343.1 L1330.0,340.0 L1346.7,337.3 L1363.3,334.9 L1380.0,333.0 L1396.8,331.4 L1413.7,330.2 L1430.8,329.4 L1448.1,328.8 L1465.4,328.5 L1482.8,328.4 L1500.3,328.4 L1517.8,328.6 L1535.3,328.8 L1552.7,329.0 L1570.2,329.2 L1587.5,329.4 L1604.7,329.5 L1621.8,329.5 L1638.8,329.4 L1655.6,329.2 L1672.1,329.0 L1688.4,328.7 L1704.5,328.4 L1720.3,328.0 L1735.7,327.6 L1750.9,327.2 L1765.6,326.9 L1780.0,326.5 L1794.2,326.1 L1808.4,325.9 L1822.7,325.8 L1836.9,325.8 L1851.0,325.9 L1865.0,326.2 L1878.9,326.6 L1892.6,327.1 L1906.1,327.7 L1919.4,328.4 L1932.3,329.1 L1945.0,329.9 L1957.3,330.7 L1969.3,331.5 L1980.8,332.3 L1991.9,333.0 L2002.4,333.7 L2012.5,334.4 L2022.0,334.9 L2030.9,335.5 L2039.2,335.9 L2046.9,336.3 L2053.8,336.6 L2060.0,327.2 L2060.0,679 Z" fill="rgb(169,165,159)" stroke="rgba(0,0,0,0.07)" stroke-width="1"/>
<path d="M-60.0,679 L-60.0,568.8 L-54.7,568.2 L-48.9,567.6 L-42.6,566.9 L-35.7,566.1 L-28.4,565.3 L-20.6,564.3 L-12.4,563.3 L-3.7,562.2 L5.4,561.0 L14.9,559.8 L24.8,558.4 L35.0,557.0 L45.6,555.5 L56.5,554.0 L67.7,552.4 L79.3,550.8 L91.1,549.1 L103.1,547.4 L115.4,545.8 L128.0,544.1 L140.7,542.6 L153.6,541.0 L166.7,539.6 L180.0,538.2 L193.6,537.0 L207.7,535.8 L222.3,534.8 L237.4,534.0 L252.9,533.3 L268.8,532.8 L285.0,532.4 L301.5,532.1 L318.3,531.9 L335.3,531.7 L352.6,531.5 L370.0,531.3 L387.6,530.9 L405.2,530.5 L423.0,529.8 L440.7,528.9 L458.5,527.7 L476.2,526.2 L493.9,524.5 L511.5,522.4 L528.9,520.1 L546.2,517.5 L563.2,514.7 L580.0,511.7 L596.7,508.6 L613.3,505.2 L630.0,501.7 L646.7,498.2 L663.3,494.6 L680.0,491.0 L696.7,487.4 L713.3,483.9 L730.0,480.4 L746.7,477.0 L763.3,473.7 L780.0,470.5 L796.7,467.3 L813.3,464.2 L830.0,461.2 L846.7,458.2 L863.3,455.2 L880.0,452.1 L896.7,449.0 L913.3,445.9 L930.0,442.6 L946.7,439.2 L963.3,435.7 L980.0,432.1 L996.7,428.3 L1013.3,424.2 L1030.0,419.8 L1046.7,415.2 L1063.3,410.4 L1080.0,405.4 L1096.7,400.3 L1113.3,395.2 L1130.0,390.0 L1146.7,384.9 L1163.3,379.9 L1180.0,375.0 L1196.7,370.3 L1213.3,365.8 L1230.0,361.6 L1246.7,357.7 L1263.3,354.1 L1280.0,350.9 L1296.7,348.0 L1313.3,345.4 L1330.0,343.2 L1346.7,341.4 L1363.3,339.8 L1380.0,338.6 L1396.8,337.7 L1413.7,337.0 L1430.8,336.4 L1448.1,336.1 L1465.4,335.8 L1482.8,335.5 L1500.3,335.3 L1517.8,335.1 L1535.3,334.8 L1552.7,334.5 L1570.2,334.1 L1587.5,333.7 L1604.7,333.3 L1621.8,332.9 L1638.8,332.4 L1655.6,332.1 L1672.1,331.7 L1688.4,331.5 L1704.5,331.3 L1720.3,331.2 L1735.7,331.2 L1750.9,331.2 L1765.6,331.4 L1780.0,331.5 L1794.2,331.8 L1808.4,332.2 L1822.7,332.7 L1836.9,333.4 L1851.0,334.1 L1865.0,334.9 L1878.9,335.7 L1892.6,336.6 L1906.1,337.5 L1919.4,338.4 L1932.3,339.2 L1945.0,339.9 L1957.3,340.6 L1969.3,341.2 L1980.8,341.7 L1991.9,342.1 L2002.4,342.4 L2012.5,342.6 L2022.0,342.8 L2030.9,342.9 L2039.2,342.9 L2046.9,342.8 L2053.8,342.7 L2060.0,329.2 L2060.0,679 Z" fill="rgb(157,154,148)" stroke="rgba(0,0,0,0.07)" stroke-width="1"/>
<path d="M-60.0,679 L-60.0,570.4 L-54.7,569.8 L-48.9,569.1 L-42.6,568.3 L-35.7,567.4 L-28.4,566.5 L-20.6,565.5 L-12.4,564.5 L-3.7,563.4 L5.4,562.2 L14.9,561.0 L24.8,559.8 L35.0,558.5 L45.6,557.3 L56.5,556.0 L67.7,554.8 L79.3,553.6 L91.1,552.4 L103.1,551.3 L115.4,550.3 L128.0,549.3 L140.7,548.5 L153.6,547.7 L166.7,547.0 L180.0,546.4 L193.6,545.9 L207.7,545.6 L222.3,545.3 L237.4,545.1 L252.9,544.9 L268.8,544.8 L285.0,544.6 L301.5,544.4 L318.3,544.1 L335.3,543.6 L352.6,543.0 L370.0,542.0 L387.6,540.9 L405.2,539.4 L423.0,537.7 L440.7,535.6 L458.5,533.3 L476.2,530.7 L493.9,528.0 L511.5,525.0 L528.9,521.9 L546.2,518.6 L563.2,515.4 L580.0,512.1 L596.7,508.8 L613.3,505.4 L630.0,502.2 L646.7,498.9 L663.3,495.8 L680.0,492.7 L696.7,489.7 L713.3,486.7 L730.0,483.8 L746.7,481.0 L763.3,478.1 L780.0,475.3 L796.7,472.4 L813.3,469.4 L830.0,466.4 L846.7,463.2 L863.3,459.9 L880.0,456.4 L896.7,452.8 L913.3,449.0 L930.0,445.0 L946.7,440.9 L963.3,436.6 L980.0,432.3 L996.7,427.7 L1013.3,422.9 L1030.0,418.0 L1046.7,413.0 L1063.3,407.9 L1080.0,402.9 L1096.7,397.9 L1113.3,393.0 L1130.0,388.3 L1146.7,383.8 L1163.3,379.4 L1180.0,375.4 L1196.7,371.6 L1213.3,368.1 L1230.0,365.0 L1246.7,362.1 L1263.3,359.4 L1280.0,357.1 L1296.7,355.0 L1313.3,353.2 L1330.0,351.5 L1346.7,350.1 L1363.3,348.8 L1380.0,347.7 L1396.8,346.7 L1413.7,345.8 L1430.8,344.9 L1448.1,344.0 L1465.4,343.2 L1482.8,342.4 L1500.3,341.5 L1517.8,340.7 L1535.3,339.8 L1552.7,339.0 L1570.2,338.3 L1587.5,337.7 L1604.7,337.1 L1621.8,336.7 L1638.8,336.5 L1655.6,336.4 L1672.1,336.5 L1688.4,336.7 L1704.5,337.1 L1720.3,337.6 L1735.7,338.2 L1750.9,338.8 L1765.6,339.5 L1780.0,340.2 L1794.2,340.8 L1808.4,341.6 L1822.7,342.3 L1836.9,343.1 L1851.0,343.9 L1865.0,344.6 L1878.9,345.3 L1892.6,345.8 L1906.1,346.3 L1919.4,346.6 L1932.3,346.8 L1945.0,346.9 L1957.3,346.9 L1969.3,346.8 L1980.8,346.5 L1991.9,346.2 L2002.4,345.8 L2012.5,345.4 L2022.0,344.9 L2030.9,344.3 L2039.2,343.8 L2046.9,343.3 L2053.8,342.7 L2060.0,331.2 L2060.0,679 Z" fill="rgb(145,142,136)" stroke="rgba(0,0,0,0.07)" stroke-width="1"/>
<path d="M-60.0,679 L-60.0,572.1 L-54.7,571.5 L-48.9,570.8 L-42.6,570.1 L-35.7,569.4 L-28.4,568.6 L-20.6,567.8 L-12.4,567.0 L-3.7,566.2 L5.4,565.4 L14.9,564.6 L24.8,563.8 L35.0,563.1 L45.6,562.4 L56.5,561.7 L67.7,561.2 L79.3,560.6 L91.1,560.2 L103.1,559.8 L115.4,559.4 L128.0,559.1 L140.7,558.9 L153.6,558.7 L166.7,558.5 L180.0,558.3 L193.6,558.1 L207.7,557.9 L222.3,557.7 L237.4,557.3 L252.9,556.9 L268.8,556.3 L285.0,555.5 L301.5,554.4 L318.3,553.2 L335.3,551.6 L352.6,549.7 L370.0,547.6 L387.6,545.2 L405.2,542.6 L423.0,539.7 L440.7,536.7 L458.5,533.5 L476.2,530.3 L493.9,527.0 L511.5,523.7 L528.9,520.5 L546.2,517.4 L563.2,514.3 L580.0,511.4 L596.7,508.5 L613.3,505.7 L630.0,503.1 L646.7,500.4 L663.3,497.9 L680.0,495.3 L696.7,492.7 L713.3,490.1 L730.0,487.5 L746.7,484.8 L763.3,481.9 L780.0,478.9 L796.7,475.7 L813.3,472.3 L830.0,468.8 L846.7,465.0 L863.3,461.1 L880.0,457.0 L896.7,452.7 L913.3,448.3 L930.0,443.8 L946.7,439.2 L963.3,434.7 L980.0,430.1 L996.7,425.5 L1013.3,420.9 L1030.0,416.3 L1046.7,411.8 L1063.3,407.4 L1080.0,403.2 L1096.7,399.1 L1113.3,395.2 L1130.0,391.6 L1146.7,388.2 L1163.3,385.0 L1180.0,382.0 L1196.7,379.2 L1213.3,376.7 L1230.0,374.2 L1246.7,372.0 L1263.3,369.8 L1280.0,367.8 L1296.7,365.8 L1313.3,363.9 L1330.0,362.1 L1346.7,360.3 L1363.3,358.6 L1380.0,356.9 L1396.8,355.3 L1413.7,353.8 L1430.8,352.2 L1448.1,350.7 L1465.4,349.3 L1482.8,347.9 L1500.3,346.7 L1517.8,345.6 L1535.3,344.6 L1552.7,343.8 L1570.2,343.3 L1587.5,342.9 L1604.7,342.8 L1621.8,342.9 L1638.8,343.2 L1655.6,343.7 L1672.1,344.4 L1688.4,345.1 L1704.5,345.9 L1720.3,346.8 L1735.7,347.6 L1750.9,348.4 L1765.6,349.1 L1780.0,349.6 L1794.2,350.0 L1808.4,350.4 L1822.7,350.7 L1836.9,350.9 L1851.0,350.9 L1865.0,350.9 L1878.9,350.6 L1892.6,350.3 L1906.1,349.8 L1919.4,349.2 L1932.3,348.5 L1945.0,347.7 L1957.3,346.8 L1969.3,345.8 L1980.8,344.9 L1991.9,343.9 L2002.4,342.9 L2012.5,342.0 L2022.0,341.1 L2030.9,340.2 L2039.2,339.4 L2046.9,338.7 L2053.8,338.0 L2060.0,333.1 L2060.0,679 Z" fill="rgb(133,130,124)" stroke="rgba(0,0,0,0.07)" stroke-width="1"/>
<path d="M-60.0,679 L-60.0,575.7 L-54.7,575.3 L-48.9,574.9 L-42.6,574.5 L-35.7,574.1 L-28.4,573.8 L-20.6,573.4 L-12.4,573.0 L-3.7,572.7 L5.4,572.4 L14.9,572.2 L24.8,572.0 L35.0,571.8 L45.6,571.7 L56.5,571.6 L67.7,571.5 L79.3,571.5 L91.1,571.4 L103.1,571.3 L115.4,571.3 L128.0,571.1 L140.7,570.9 L153.6,570.6 L166.7,570.2 L180.0,569.7 L193.6,569.0 L207.7,568.2 L222.3,567.2 L237.4,565.9 L252.9,564.4 L268.8,562.7 L285.0,560.7 L301.5,558.4 L318.3,555.8 L335.3,553.1 L352.6,550.1 L370.0,547.0 L387.6,543.8 L405.2,540.5 L423.0,537.2 L440.7,533.9 L458.5,530.7 L476.2,527.6 L493.9,524.7 L511.5,521.8 L528.9,519.2 L546.2,516.6 L563.2,514.2 L580.0,511.9 L596.7,509.6 L613.3,507.3 L630.0,505.1 L646.7,502.8 L663.3,500.4 L680.0,497.9 L696.7,495.3 L713.3,492.5 L730.0,489.6 L746.7,486.4 L763.3,483.1 L780.0,479.5 L796.7,475.8 L813.3,471.9 L830.0,467.8 L846.7,463.6 L863.3,459.3 L880.0,455.0 L896.7,450.6 L913.3,446.3 L930.0,442.1 L946.7,437.9 L963.3,433.9 L980.0,430.1 L996.7,426.5 L1013.3,422.9 L1030.0,419.4 L1046.7,416.1 L1063.3,412.9 L1080.0,409.9 L1096.7,407.0 L1113.3,404.2 L1130.0,401.6 L1146.7,399.0 L1163.3,396.5 L1180.0,394.1 L1196.7,391.7 L1213.3,389.3 L1230.0,386.9 L1246.7,384.4 L1263.3,381.9 L1280.0,379.4 L1296.7,376.8 L1313.3,374.3 L1330.0,371.7 L1346.7,369.1 L1363.3,366.7 L1380.0,364.3 L1396.8,362.1 L1413.7,360.0 L1430.8,358.1 L1448.1,356.3 L1465.4,354.7 L1482.8,353.4 L1500.3,352.3 L1517.8,351.4 L1535.3,350.9 L1552.7,350.6 L1570.2,350.6 L1587.5,350.7 L1604.7,351.1 L1621.8,351.7 L1638.8,352.3 L1655.6,353.0 L1672.1,353.7 L1688.4,354.4 L1704.5,355.0 L1720.3,355.5 L1735.7,355.7 L1750.9,355.9 L1765.6,355.8 L1780.0,355.4 L1794.2,354.9 L1808.4,354.3 L1822.7,353.5 L1836.9,352.6 L1851.0,351.6 L1865.0,350.5 L1878.9,349.2 L1892.6,347.9 L1906.1,346.6 L1919.4,345.2 L1932.3,343.8 L1945.0,342.4 L1957.3,341.1 L1969.3,339.8 L1980.8,338.7 L1991.9,337.6 L2002.4,336.5 L2012.5,335.6 L2022.0,334.8 L2030.9,334.1 L2039.2,333.4 L2046.9,332.9 L2053.8,332.4 L2060.0,335.1 L2060.0,679 Z" fill="rgb(120,117,112)" stroke="rgba(0,0,0,0.07)" stroke-width="1"/>
<path d="M-60.0,679 L-60.0,589.7 L-54.7,589.7 L-48.9,589.8 L-42.6,589.9 L-35.7,590.0 L-28.4,590.1 L-20.6,590.3 L-12.4,590.6 L-3.7,590.8 L5.4,591.1 L14.9,591.4 L24.8,591.7 L35.0,592.0 L45.6,592.3 L56.5,592.5 L67.7,592.6 L79.3,592.7 L91.1,592.7 L103.1,592.6 L115.4,592.3 L128.0,591.9 L140.7,591.2 L153.6,590.4 L166.7,589.4 L180.0,588.2 L193.6,586.7 L207.7,585.0 L222.3,583.1 L237.4,581.0 L252.9,578.6 L268.8,576.0 L285.0,573.3 L301.5,570.4 L318.3,567.4 L335.3,564.3 L352.6,561.3 L370.0,558.3 L387.6,555.4 L405.2,552.6 L423.0,549.9 L440.7,547.4 L458.5,545.1 L476.2,543.0 L493.9,541.0 L511.5,539.1 L528.9,537.3 L546.2,535.5 L563.2,533.7 L580.0,531.9 L596.7,530.0 L613.3,528.0 L630.0,525.9 L646.7,523.5 L663.3,521.0 L680.0,518.3 L696.7,515.5 L713.3,512.4 L730.0,509.1 L746.7,505.7 L763.3,502.1 L780.0,498.5 L796.7,494.8 L813.3,491.0 L830.0,487.3 L846.7,483.7 L863.3,480.1 L880.0,476.7 L896.7,473.5 L913.3,470.5 L930.0,467.6 L946.7,465.1 L963.3,462.7 L980.0,460.6 L996.7,458.7 L1013.3,456.8 L1030.0,455.1 L1046.7,453.4 L1063.3,451.7 L1080.0,450.0 L1096.7,448.3 L1113.3,446.6 L1130.0,444.7 L1146.7,442.8 L1163.3,440.8 L1180.0,438.6 L1196.7,436.3 L1213.3,433.8 L1230.0,431.2 L1246.7,428.5 L1263.3,425.7 L1280.0,422.9 L1296.7,420.1 L1313.3,417.2 L1330.0,414.5 L1346.7,411.9 L1363.3,409.4 L1380.0,407.2 L1396.8,405.2 L1413.7,403.5 L1430.8,402.1 L1448.1,400.9 L1465.4,400.0 L1482.8,399.4 L1500.3,399.1 L1517.8,399.0 L1535.3,399.1 L1552.7,399.4 L1570.2,399.8 L1587.5,400.3 L1604.7,400.9 L1621.8,401.3 L1638.8,401.7 L1655.6,402.0 L1672.1,402.1 L1688.4,402.0 L1704.5,401.7 L1720.3,401.2 L1735.7,400.5 L1750.9,399.5 L1765.6,398.3 L1780.0,397.0 L1794.2,395.5 L1808.4,393.9 L1822.7,392.3 L1836.9,390.6 L1851.0,388.8 L1865.0,387.1 L1878.9,385.4 L1892.6,383.8 L1906.1,382.3 L1919.4,380.8 L1932.3,379.5 L1945.0,378.3 L1957.3,377.3 L1969.3,376.4 L1980.8,375.6 L1991.9,374.9 L2002.4,374.4 L2012.5,374.0 L2022.0,373.6 L2030.9,373.4 L2039.2,373.2 L2046.9,373.0 L2053.8,372.9 L2060.0,380.4 L2060.0,679 Z" fill="rgb(107,104,99)" stroke="rgba(0,0,0,0.07)" stroke-width="1"/>
<path d="M-60.0,679 L-60.0,605.9 L-54.7,606.2 L-48.9,606.5 L-42.6,606.8 L-35.7,607.2 L-28.4,607.6 L-20.6,608.0 L-12.4,608.4 L-3.7,608.8 L5.4,609.2 L14.9,609.5 L24.8,609.7 L35.0,609.9 L45.6,609.9 L56.5,609.8 L67.7,609.6 L79.3,609.2 L91.1,608.7 L103.1,607.9 L115.4,607.0 L128.0,605.9 L140.7,604.5 L153.6,603.0 L166.7,601.3 L180.0,599.4 L193.6,597.3 L207.7,595.0 L222.3,592.6 L237.4,590.0 L252.9,587.4 L268.8,584.7 L285.0,582.1 L301.5,579.5 L318.3,576.9 L335.3,574.5 L352.6,572.3 L370.0,570.2 L387.6,568.3 L405.2,566.5 L423.0,564.9 L440.7,563.5 L458.5,562.1 L476.2,560.7 L493.9,559.4 L511.5,558.0 L528.9,556.6 L546.2,555.0 L563.2,553.3 L580.0,551.4 L596.7,549.4 L613.3,547.2 L630.0,544.8 L646.7,542.2 L663.3,539.4 L680.0,536.5 L696.7,533.5 L713.3,530.4 L730.0,527.3 L746.7,524.2 L763.3,521.1 L780.0,518.2 L796.7,515.4 L813.3,512.7 L830.0,510.3 L846.7,508.1 L863.3,506.1 L880.0,504.3 L896.7,502.8 L913.3,501.5 L930.0,500.4 L946.7,499.5 L963.3,498.8 L980.0,498.1 L996.7,497.5 L1013.3,496.8 L1030.0,496.0 L1046.7,495.1 L1063.3,494.0 L1080.0,492.7 L1096.7,491.3 L1113.3,489.6 L1130.0,487.6 L1146.7,485.5 L1163.3,483.2 L1180.0,480.6 L1196.7,477.9 L1213.3,475.1 L1230.0,472.2 L1246.7,469.3 L1263.3,466.4 L1280.0,463.5 L1296.7,460.8 L1313.3,458.2 L1330.0,455.9 L1346.7,453.7 L1363.3,451.9 L1380.0,450.4 L1396.8,449.1 L1413.7,448.2 L1430.8,447.5 L1448.1,447.1 L1465.4,446.9 L1482.8,446.8 L1500.3,447.0 L1517.8,447.1 L1535.3,447.3 L1552.7,447.5 L1570.2,447.6 L1587.5,447.5 L1604.7,447.3 L1621.8,446.9 L1638.8,446.3 L1655.6,445.4 L1672.1,444.3 L1688.4,443.0 L1704.5,441.6 L1720.3,439.9 L1735.7,438.2 L1750.9,436.3 L1765.6,434.4 L1780.0,432.4 L1794.2,430.5 L1808.4,428.6 L1822.7,426.8 L1836.9,425.0 L1851.0,423.4 L1865.0,422.0 L1878.9,420.7 L1892.6,419.6 L1906.1,418.6 L1919.4,417.8 L1932.3,417.2 L1945.0,416.8 L1957.3,416.5 L1969.3,416.3 L1980.8,416.3 L1991.9,416.3 L2002.4,416.4 L2012.5,416.5 L2022.0,416.7 L2030.9,416.9 L2039.2,417.1 L2046.9,417.2 L2053.8,417.4 L2060.0,425.7 L2060.0,679 Z" fill="rgb(93,90,86)" stroke="rgba(0,0,0,0.07)" stroke-width="1"/>
<path d="M-60.0,679 L-60.0,620.4 L-54.7,620.5 L-48.9,620.8 L-42.6,621.0 L-35.7,621.2 L-28.4,621.4 L-20.6,621.6 L-12.4,621.8 L-3.7,621.8 L5.4,621.8 L14.9,621.7 L24.8,621.5 L35.0,621.1 L45.6,620.6 L56.5,620.0 L67.7,619.2 L79.3,618.2 L91.1,617.1 L103.1,615.8 L115.4,614.4 L128.0,612.8 L140.7,611.1 L153.6,609.3 L166.7,607.5 L180.0,605.5 L193.6,603.5 L207.7,601.4 L222.3,599.4 L237.4,597.3 L252.9,595.4 L268.8,593.5 L285.0,591.8 L301.5,590.3 L318.3,588.8 L335.3,587.6 L352.6,586.5 L370.0,585.4 L387.6,584.5 L405.2,583.6 L423.0,582.7 L440.7,581.8 L458.5,580.8 L476.2,579.6 L493.9,578.3 L511.5,576.9 L528.9,575.2 L546.2,573.4 L563.2,571.4 L580.0,569.3 L596.7,567.0 L613.3,564.6 L630.0,562.2 L646.7,559.7 L663.3,557.2 L680.0,554.8 L696.7,552.4 L713.3,550.1 L730.0,548.1 L746.7,546.2 L763.3,544.5 L780.0,543.1 L796.7,541.9 L813.3,540.9 L830.0,540.2 L846.7,539.7 L863.3,539.4 L880.0,539.2 L896.7,539.1 L913.3,539.2 L930.0,539.2 L946.7,539.3 L963.3,539.3 L980.0,539.1 L996.7,538.8 L1013.3,538.2 L1030.0,537.4 L1046.7,536.3 L1063.3,534.8 L1080.0,533.2 L1096.7,531.2 L1113.3,529.0 L1130.0,526.6 L1146.7,524.0 L1163.3,521.4 L1180.0,518.6 L1196.7,515.8 L1213.3,513.0 L1230.0,510.3 L1246.7,507.7 L1263.3,505.3 L1280.0,503.0 L1296.7,501.0 L1313.3,499.2 L1330.0,497.7 L1346.7,496.5 L1363.3,495.5 L1380.0,494.7 L1396.8,494.2 L1413.7,493.8 L1430.8,493.6 L1448.1,493.4 L1465.4,493.2 L1482.8,493.0 L1500.3,492.8 L1517.8,492.3 L1535.3,491.8 L1552.7,491.0 L1570.2,490.0 L1587.5,488.7 L1604.7,487.3 L1621.8,485.7 L1638.8,483.8 L1655.6,481.9 L1672.1,479.8 L1688.4,477.8 L1704.5,475.6 L1720.3,473.6 L1735.7,471.6 L1750.9,469.7 L1765.6,467.9 L1780.0,466.2 L1794.2,464.7 L1808.4,463.4 L1822.7,462.3 L1836.9,461.4 L1851.0,460.6 L1865.0,460.1 L1878.9,459.8 L1892.6,459.6 L1906.1,459.7 L1919.4,459.8 L1932.3,460.0 L1945.0,460.4 L1957.3,460.7 L1969.3,461.2 L1980.8,461.6 L1991.9,462.0 L2002.4,462.4 L2012.5,462.8 L2022.0,463.1 L2030.9,463.4 L2039.2,463.7 L2046.9,463.9 L2053.8,464.0 L2060.0,471.0 L2060.0,679 Z" fill="rgb(79,77,73)" stroke="rgba(0,0,0,0.07)" stroke-width="1"/>
<path d="M-60.0,679 L-60.0,628.6 L-54.7,628.5 L-48.9,628.4 L-42.6,628.3 L-35.7,628.2 L-28.4,628.1 L-20.6,627.9 L-12.4,627.6 L-3.7,627.2 L5.4,626.8 L14.9,626.3 L24.8,625.7 L35.0,625.0 L45.6,624.2 L56.5,623.3 L67.7,622.3 L79.3,621.3 L91.1,620.1 L103.1,619.0 L115.4,617.8 L128.0,616.5 L140.7,615.3 L153.6,614.1 L166.7,612.9 L180.0,611.7 L193.6,610.6 L207.7,609.5 L222.3,608.5 L237.4,607.6 L252.9,606.9 L268.8,606.2 L285.0,605.7 L301.5,605.2 L318.3,604.8 L335.3,604.5 L352.6,604.1 L370.0,603.6 L387.6,603.0 L405.2,602.3 L423.0,601.5 L440.7,600.4 L458.5,599.2 L476.2,597.8 L493.9,596.1 L511.5,594.4 L528.9,592.5 L546.2,590.6 L563.2,588.6 L580.0,586.7 L596.7,584.8 L613.3,583.0 L630.0,581.3 L646.7,579.7 L663.3,578.4 L680.0,577.2 L696.7,576.3 L713.3,575.6 L730.0,575.2 L746.7,575.0 L763.3,575.0 L780.0,575.2 L796.7,575.6 L813.3,576.1 L830.0,576.7 L846.7,577.3 L863.3,577.9 L880.0,578.4 L896.7,578.9 L913.3,579.2 L930.0,579.2 L946.7,579.1 L963.3,578.8 L980.0,578.2 L996.7,577.2 L1013.3,576.0 L1030.0,574.5 L1046.7,572.7 L1063.3,570.7 L1080.0,568.5 L1096.7,566.1 L1113.3,563.7 L1130.0,561.2 L1146.7,558.7 L1163.3,556.2 L1180.0,553.9 L1196.7,551.6 L1213.3,549.6 L1230.0,547.7 L1246.7,546.0 L1263.3,544.5 L1280.0,543.2 L1296.7,542.1 L1313.3,541.2 L1330.0,540.4 L1346.7,539.8 L1363.3,539.3 L1380.0,538.8 L1396.8,538.3 L1413.7,537.8 L1430.8,537.2 L1448.1,536.4 L1465.4,535.5 L1482.8,534.3 L1500.3,533.0 L1517.8,531.5 L1535.3,529.7 L1552.7,527.7 L1570.2,525.6 L1587.5,523.4 L1604.7,521.2 L1621.8,518.9 L1638.8,516.6 L1655.6,514.4 L1672.1,512.4 L1688.4,510.5 L1704.5,508.9 L1720.3,507.4 L1735.7,506.2 L1750.9,505.2 L1765.6,504.4 L1780.0,503.8 L1794.2,503.4 L1808.4,503.2 L1822.7,503.3 L1836.9,503.4 L1851.0,503.8 L1865.0,504.2 L1878.9,504.8 L1892.6,505.4 L1906.1,506.0 L1919.4,506.7 L1932.3,507.3 L1945.0,507.9 L1957.3,508.5 L1969.3,509.0 L1980.8,509.4 L1991.9,509.7 L2002.4,510.0 L2012.5,510.2 L2022.0,510.3 L2030.9,510.4 L2039.2,510.4 L2046.9,510.4 L2053.8,510.4 L2060.0,516.4 L2060.0,679 Z" fill="rgb(65,63,59)" stroke="rgba(0,0,0,0.07)" stroke-width="1"/>
<path d="M-60.0,679 L-60.0,629.3 L-54.7,629.0 L-48.9,628.7 L-42.6,628.4 L-35.7,628.1 L-28.4,627.8 L-20.6,627.5 L-12.4,627.2 L-3.7,626.8 L5.4,626.4 L14.9,626.0 L24.8,625.6 L35.0,625.2 L45.6,624.7 L56.5,624.3 L67.7,623.9 L79.3,623.6 L91.1,623.2 L103.1,623.0 L115.4,622.7 L128.0,622.6 L140.7,622.5 L153.6,622.4 L166.7,622.4 L180.0,622.4 L193.6,622.5 L207.7,622.6 L222.3,622.8 L237.4,623.0 L252.9,623.2 L268.8,623.4 L285.0,623.5 L301.5,623.6 L318.3,623.5 L335.3,623.3 L352.6,622.9 L370.0,622.4 L387.6,621.6 L405.2,620.6 L423.0,619.4 L440.7,618.0 L458.5,616.6 L476.2,615.0 L493.9,613.5 L511.5,611.9 L528.9,610.5 L546.2,609.2 L563.2,608.0 L580.0,607.1 L596.7,606.4 L613.3,606.0 L630.0,605.8 L646.7,605.8 L663.3,606.0 L680.0,606.5 L696.7,607.2 L713.3,608.1 L730.0,609.1 L746.7,610.1 L763.3,611.3 L780.0,612.4 L796.7,613.4 L813.3,614.4 L830.0,615.2 L846.7,615.8 L863.3,616.1 L880.0,616.3 L896.7,616.1 L913.3,615.7 L930.0,615.0 L946.7,614.0 L963.3,612.8 L980.0,611.3 L996.7,609.7 L1013.3,607.9 L1030.0,605.9 L1046.7,603.8 L1063.3,601.7 L1080.0,599.6 L1096.7,597.5 L1113.3,595.5 L1130.0,593.7 L1146.7,592.0 L1163.3,590.4 L1180.0,589.0 L1196.7,587.8 L1213.3,586.8 L1230.0,585.9 L1246.7,585.1 L1263.3,584.4 L1280.0,583.8 L1296.7,583.2 L1313.3,582.5 L1330.0,581.9 L1346.7,581.1 L1363.3,580.2 L1380.0,579.2 L1396.8,578.1 L1413.7,576.7 L1430.8,575.2 L1448.1,573.4 L1465.4,571.4 L1482.8,569.3 L1500.3,567.0 L1517.8,564.7 L1535.3,562.3 L1552.7,559.9 L1570.2,557.6 L1587.5,555.4 L1604.7,553.4 L1621.8,551.7 L1638.8,550.1 L1655.6,548.9 L1672.1,548.0 L1688.4,547.3 L1704.5,546.9 L1720.3,546.8 L1735.7,546.9 L1750.9,547.2 L1765.6,547.6 L1780.0,548.2 L1794.2,548.8 L1808.4,549.6 L1822.7,550.4 L1836.9,551.3 L1851.0,552.1 L1865.0,553.0 L1878.9,553.8 L1892.6,554.5 L1906.1,555.1 L1919.4,555.7 L1932.3,556.1 L1945.0,556.4 L1957.3,556.7 L1969.3,556.8 L1980.8,556.9 L1991.9,556.9 L2002.4,556.8 L2012.5,556.8 L2022.0,556.6 L2030.9,556.5 L2039.2,556.3 L2046.9,556.2 L2053.8,556.0 L2060.0,561.7 L2060.0,679 Z" fill="rgb(50,48,45)" stroke="rgba(0,0,0,0.07)" stroke-width="1"/>
<path d="M-60.0,679 L-60.0,625.7 L-54.7,625.6 L-48.9,625.5 L-42.6,625.4 L-35.7,625.4 L-28.4,625.5 L-20.6,625.6 L-12.4,625.7 L-3.7,626.0 L5.4,626.3 L14.9,626.6 L24.8,627.1 L35.0,627.6 L45.6,628.2 L56.5,628.9 L67.7,629.7 L79.3,630.5 L91.1,631.5 L103.1,632.5 L115.4,633.5 L128.0,634.6 L140.7,635.7 L153.6,636.8 L166.7,637.8 L180.0,638.8 L193.6,639.6 L207.7,640.5 L222.3,641.2 L237.4,641.8 L252.9,642.3 L268.8,642.6 L285.0,642.7 L301.5,642.7 L318.3,642.4 L335.3,641.8 L352.6,641.1 L370.0,640.2 L387.6,639.2 L405.2,638.1 L423.0,637.0 L440.7,635.9 L458.5,634.9 L476.2,634.0 L493.9,633.3 L511.5,632.8 L528.9,632.6 L546.2,632.7 L563.2,633.1 L580.0,633.7 L596.7,634.6 L613.3,635.6 L630.0,636.9 L646.7,638.3 L663.3,639.8 L680.0,641.3 L696.7,642.9 L713.3,644.4 L730.0,645.8 L746.7,647.0 L763.3,648.0 L780.0,648.8 L796.7,649.4 L813.3,649.7 L830.0,649.6 L846.7,649.3 L863.3,648.7 L880.0,647.8 L896.7,646.7 L913.3,645.4 L930.0,643.9 L946.7,642.2 L963.3,640.5 L980.0,638.8 L996.7,637.1 L1013.3,635.3 L1030.0,633.7 L1046.7,632.2 L1063.3,630.7 L1080.0,629.5 L1096.7,628.4 L1113.3,627.5 L1130.0,626.7 L1146.7,626.0 L1163.3,625.5 L1180.0,625.1 L1196.7,624.7 L1213.3,624.3 L1230.0,623.9 L1246.7,623.4 L1263.3,622.8 L1280.0,622.1 L1296.7,621.3 L1313.3,620.2 L1330.0,618.9 L1346.7,617.5 L1363.3,615.9 L1380.0,614.0 L1396.8,612.1 L1413.7,609.9 L1430.8,607.7 L1448.1,605.4 L1465.4,603.0 L1482.8,600.7 L1500.3,598.5 L1517.8,596.5 L1535.3,594.6 L1552.7,593.0 L1570.2,591.8 L1587.5,590.8 L1604.7,590.2 L1621.8,589.9 L1638.8,589.9 L1655.6,590.2 L1672.1,590.8 L1688.4,591.6 L1704.5,592.5 L1720.3,593.6 L1735.7,594.7 L1750.9,595.8 L1765.6,597.0 L1780.0,598.0 L1794.2,599.0 L1808.4,600.0 L1822.7,600.9 L1836.9,601.6 L1851.0,602.3 L1865.0,602.9 L1878.9,603.3 L1892.6,603.6 L1906.1,603.8 L1919.4,603.8 L1932.3,603.8 L1945.0,603.8 L1957.3,603.7 L1969.3,603.5 L1980.8,603.4 L1991.9,603.2 L2002.4,603.1 L2012.5,603.0 L2022.0,602.9 L2030.9,602.8 L2039.2,602.8 L2046.9,602.8 L2053.8,602.8 L2060.0,607.0 L2060.0,679 Z" fill="rgb(36,34,31)" stroke="rgba(0,0,0,0.07)" stroke-width="1"/>
<line x1="180" y1="528.5" x2="180" y2="496.5" stroke="#B9B4AA" stroke-width="1.5"/>
<circle cx="180" cy="534.5" r="4" fill="#161512"/>
<text x="190" y="488.5" font-family="Helvetica Neue, Helvetica, Arial, sans-serif" font-size="40" font-weight="500" fill="#161512">91<tspan dx="6" font-size="19" font-weight="400" fill="#77736B">tok/s</tspan></text>
<text x="190" y="516.5" font-family="Helvetica Neue, Helvetica, Arial, sans-serif" font-size="16" letter-spacing="2.5" fill="#8C877E">C1 DECODE</text>
<line x1="580" y1="482.1" x2="580" y2="450.1" stroke="#B9B4AA" stroke-width="1.5"/>
<circle cx="580" cy="488.1" r="4" fill="#161512"/>
<text x="590" y="442.1" font-family="Helvetica Neue, Helvetica, Arial, sans-serif" font-size="40" font-weight="500" fill="#161512">151<tspan dx="6" font-size="19" font-weight="400" fill="#77736B">tok/s</tspan></text>
<text x="590" y="470.1" font-family="Helvetica Neue, Helvetica, Arial, sans-serif" font-size="16" letter-spacing="2.5" fill="#8C877E">C2 DECODE</text>
<line x1="1380" y1="329.1" x2="1380" y2="297.1" stroke="#B9B4AA" stroke-width="1.5"/>
<circle cx="1380" cy="335.1" r="4" fill="#161512"/>
<text x="1390" y="289.1" font-family="Helvetica Neue, Helvetica, Arial, sans-serif" font-size="40" font-weight="500" fill="#161512">1,654<tspan dx="6" font-size="19" font-weight="400" fill="#77736B">tok/s</tspan></text>
<text x="1390" y="317.1" font-family="Helvetica Neue, Helvetica, Arial, sans-serif" font-size="16" letter-spacing="2.5" fill="#8C877E">PREFILL</text>
<path transform="translate(130,96) scale(7.0833)" fill="#161512" fill-rule="evenodd" d="M12.604 1.34c.393.69.784 1.382 1.174 2.075a.18.18 0 00.157.091h5.552c.174 0 .322.11.446.327l1.454 2.57c.19.337.24.478.024.837-.26.43-.513.864-.76 1.3l-.367.658c-.106.196-.223.28-.04.512l2.652 4.637c.172.301.111.494-.043.77-.437.785-.882 1.564-1.335 2.34-.159.272-.352.375-.68.37-.777-.016-1.552-.01-2.327.016a.099.099 0 00-.081.05 575.097 575.097 0 01-2.705 4.74c-.169.293-.38.363-.725.364-.997.003-2.002.004-3.017.002a.537.537 0 01-.465-.271l-1.335-2.323a.09.09 0 00-.083-.049H4.982c-.285.03-.553-.001-.805-.092l-1.603-2.77a.543.543 0 01-.002-.54l1.207-2.12a.198.198 0 000-.197 550.951 550.951 0 01-1.875-3.272l-.79-1.395c-.16-.31-.173-.496.095-.965.465-.813.927-1.625 1.387-2.436.132-.234.304-.334.584-.335a338.3 338.3 0 012.589-.001.124.124 0 00.107-.063l2.806-4.895a.488.488 0 01.422-.246c.524-.001 1.053 0 1.583-.006L11.704 1c.341-.003.724.032.9.34zm-3.432.403a.06.06 0 00-.052.03L6.254 6.788a.157.157 0 01-.135.078H3.253c-.056 0-.07.025-.041.074l5.81 10.156c.025.042.013.062-.034.063l-2.795.015a.218.218 0 00-.2.116l-1.32 2.31c-.044.078-.021.118.068.118l5.716.008c.046 0 .08.02.104.061l1.403 2.454c.046.081.092.082.139 0l5.006-8.76.783-1.382a.055.055 0 01.096 0l1.424 2.53a.122.122 0 00.107.062l2.763-.02a.04.04 0 00.035-.02.041.041 0 000-.04l-2.9-5.086a.108.108 0 010-.113l.293-.507 1.12-1.977c.024-.041.012-.062-.035-.062H9.2c-.059 0-.073-.026-.043-.077l1.434-2.505a.107.107 0 000-.114L9.225 1.774a.06.06 0 00-.053-.031zm6.29 8.02c.046 0 .058.02.034.06l-.832 1.465-2.613 4.585a.056.056 0 01-.05.029.058.058 0 01-.05-.029L8.498 9.841c-.02-.034-.01-.052.028-.054l.216-.012 6.722-.012z"/>
<line x1="358" y1="116" x2="358" y2="246" stroke="#C9C4BA" stroke-width="2"/>
<path transform="translate(400,20.3) scale(13.5)" fill="#161512" d="M20.42 7.345v9.18h1.651v-9.18zM0 7.475v1.737h1.737V7.474zm9.78.352v6.053c0 .513.044.945.13 1.292.087.34.235.618.44.828.203.21.475.359.803.451.334.093.754.136 1.255.136h.216v-1.533c-.24 0-.445-.012-.593-.037a.672.672 0 0 1-.39-.173.693.693 0 0 1-.173-.377 4.002 4.002 0 0 1-.037-.606v-2.182h1.193v-1.416h-1.193V7.827zm-3.505 2.312c-.396 0-.76.08-1.082.241-.327.161-.6.384-.822.668l-.087.117v-.902H2.658v6.256h1.639v-3.214c.018-.588.16-1.02.433-1.299.29-.297.642-.445 1.044-.445.476 0 .841.149 1.082.433.235.284.359.686.359 1.2v3.324h1.663V12.97c.006-.89-.229-1.595-.686-2.09-.458-.495-1.1-.742-1.917-.742zm10.065.006a3.252 3.252 0 0 0-2.306.946c-.29.29-.525.637-.692 1.033a3.145 3.145 0 0 0-.254 1.273c0 .452.08.878.241 1.274.161.395.39.742.674 1.032.284.29.637.526 1.045.693.408.173.86.26 1.342.26 1.397 0 2.262-.637 2.782-1.23l-1.187-.904c-.248.297-.841.699-1.583.699-.464 0-.847-.105-1.138-.321a1.588 1.588 0 0 1-.593-.872l-.019-.056h4.915v-.587c0-.451-.08-.872-.235-1.267a3.393 3.393 0 0 0-.661-1.033 3.013 3.013 0 0 0-1.02-.692 3.345 3.345 0 0 0-1.311-.248zm-16.297.118v6.256h1.651v-6.256zm16.278 1.286c1.132 0 1.664.797 1.664 1.255l-3.32.006c0-.458.525-1.255 1.656-1.261zm7.073 3.814a.606.606 0 0 0-.606.606.606.606 0 0 0 .606.606.606.606 0 0 0 .606-.606.606.606 0 0 0-.606-.606zm-.008.105a.5.5 0 0 1 .002 0 .5.5 0 0 1 .5.501.5.5 0 0 1-.5.5.5.5 0 0 1-.5-.5.5.5 0 0 1 .498-.5zm-.233.155v.699h.13v-.285h.093l.173.285h.136l-.18-.297a.191.191 0 0 0 .118-.056c.03-.03.05-.074.05-.136 0-.068-.02-.117-.063-.154-.037-.038-.105-.056-.185-.056zm.13.099h.154c.019 0 .037.006.056.012a.064.064 0 0 1 .037.031c.013.013.012.031.012.056a.124.124 0 0 1-.012.055.164.164 0 0 1-.037.031c-.019.006-.037.013-.056.013h-.154Z"/>
</svg>